<?xml version="1.0" standalone="no"?>
<!DOCTYPE svg PUBLIC "-//W3C//DTD SVG 20010904//EN"
 "http://www.w3.org/TR/2001/REC-SVG-20010904/DTD/svg10.dtd">
<svg version="1.0" xmlns="http://www.w3.org/2000/svg"
 width="1292.000000pt" height="1274.000000pt" viewBox="0 0 1292.000000 1274.000000"
 preserveAspectRatio="xMidYMid meet">

<g transform="translate(0.000000,1274.000000) scale(0.100000,-0.100000)"
fill="#000000" stroke="none">
<path d="M8725 12642 c-11 -2 -25 -8 -32 -14 -6 -5 -22 -6 -35 -3 -17 4 -29 0
-42 -14 -15 -17 -22 -18 -44 -8 -20 9 -26 9 -30 -1 -5 -16 -20 -15 -37 1 -22
23 -73 8 -112 -32 -47 -48 -116 -138 -137 -178 -9 -18 -16 -47 -16 -66 0 -19
-9 -69 -20 -113 -12 -43 -24 -104 -27 -134 -10 -99 -7 -135 38 -380 7 -38 24
-83 41 -108 19 -29 28 -56 28 -83 0 -22 5 -49 10 -59 6 -11 14 -61 19 -112 5
-51 18 -128 30 -172 11 -43 18 -82 15 -88 -3 -5 -3 -45 1 -90 6 -67 11 -83 31
-101 19 -17 23 -27 19 -49 -5 -22 -3 -28 10 -28 20 0 71 -53 56 -58 -6 -2 -11
-9 -11 -17 0 -7 -14 -18 -31 -25 -33 -14 -53 -51 -43 -82 3 -10 7 -105 9 -211
3 -180 8 -238 25 -262 3 -5 12 -29 19 -52 6 -24 15 -43 20 -43 20 0 28 -60 30
-242 2 -141 -1 -203 -10 -219 -6 -13 -12 -39 -11 -57 1 -18 -5 -44 -14 -57
-19 -29 -6 -122 17 -116 8 2 22 6 32 9 16 4 18 0 15 -29 -3 -33 -4 -34 -45
-33 -24 0 -43 -1 -43 -3 0 -2 12 -16 27 -30 15 -16 21 -29 15 -31 -7 -2 -12
-8 -12 -14 0 -28 -46 -107 -66 -112 -11 -3 -42 -24 -67 -47 -34 -30 -47 -48
-47 -68 0 -15 -4 -31 -10 -37 -5 -5 -23 -47 -39 -93 -26 -72 -29 -91 -21 -125
5 -23 10 -60 10 -84 0 -23 9 -68 20 -99 11 -32 20 -78 20 -103 0 -25 5 -61 11
-80 6 -19 11 -101 11 -182 -1 -115 2 -149 14 -159 8 -6 14 -17 14 -24 0 -7 7
-26 15 -41 8 -16 15 -43 15 -60 0 -18 7 -54 16 -81 16 -50 16 -51 -10 -94
-100 -172 -121 -256 -68 -281 22 -11 28 -21 30 -56 3 -36 8 -45 30 -53 21 -8
34 -7 60 7 17 9 32 23 32 31 0 23 26 14 38 -12 7 -14 12 -32 12 -39 0 -7 9
-25 20 -39 18 -22 19 -30 9 -73 -6 -27 -14 -82 -18 -123 -5 -43 -14 -79 -22
-85 -8 -6 -14 -27 -15 -46 -1 -94 -18 -198 -37 -232 -11 -21 -24 -38 -28 -38
-4 0 -17 -15 -28 -34 -18 -29 -21 -49 -21 -154 l0 -121 -45 -44 c-25 -25 -45
-51 -45 -58 0 -12 -2 -12 -9 0 -5 7 -4 26 3 44 9 25 8 31 -4 35 -22 8 -86 75
-104 109 -8 17 -22 33 -30 36 -10 4 -15 19 -14 45 0 21 -5 48 -11 60 -16 30
-14 97 4 112 24 20 16 110 -10 110 -7 0 -16 -11 -19 -24 -4 -18 -11 -23 -26
-19 -23 6 -27 38 -5 47 10 3 15 19 15 47 0 55 -24 47 -28 -9 -3 -36 -6 -42
-26 -42 -12 0 -27 5 -34 12 -9 9 -12 6 -12 -13 0 -35 -11 -43 -27 -19 -12 17
-12 30 -2 78 7 31 18 64 25 72 22 26 21 55 -1 55 -28 1 -45 13 -45 34 0 10 -6
18 -14 18 -18 0 -32 -50 -17 -55 13 -4 15 -32 3 -32 -20 0 -42 60 -36 98 4 27
2 42 -6 47 -29 18 -76 -93 -51 -118 6 -6 11 -17 11 -24 0 -21 -20 -15 -29 9
-8 22 -8 22 -26 -5 -14 -22 -20 -25 -31 -16 -8 6 -14 18 -14 25 0 25 -27 15
-64 -23 -32 -33 -41 -51 -37 -75 0 -5 -4 -8 -9 -8 -6 0 -10 -7 -10 -15 0 -8
-7 -15 -15 -15 -9 0 -14 9 -14 23 2 33 -18 77 -36 77 -19 0 -38 -45 -30 -71 5
-16 3 -16 -25 -6 -16 6 -30 17 -30 24 0 15 -12 17 -26 3 -6 -6 -15 -6 -24 1
-13 9 -12 12 4 22 60 39 62 43 44 79 -9 18 -19 41 -22 51 -3 9 -12 17 -20 17
-8 0 -26 5 -39 11 -20 9 -24 17 -21 51 1 22 5 42 8 45 3 3 18 -8 33 -26 24
-27 53 -41 53 -25 0 30 -29 105 -49 128 -41 44 -75 76 -83 76 -5 0 -8 7 -8 15
0 15 4 17 54 19 33 1 46 21 19 30 -37 12 -77 -8 -90 -45 -15 -42 -16 -106 -3
-114 13 -8 13 -52 0 -60 -6 -3 -7 -17 -4 -31 5 -18 2 -24 -10 -24 -9 0 -19 7
-22 15 -8 19 -34 20 -34 1 0 -7 -13 -19 -30 -26 -25 -10 -28 -15 -19 -31 7
-15 6 -19 -5 -19 -9 0 -20 9 -26 20 -6 11 -18 20 -27 20 -9 0 -30 11 -48 24
-22 17 -36 22 -46 15 -12 -7 -10 -15 8 -48 l22 -39 -29 -12 c-17 -7 -40 -30
-52 -51 -23 -41 -48 -52 -48 -20 0 20 -23 45 -33 35 -3 -3 -3 -31 0 -61 4 -32
2 -58 -4 -61 -13 -9 -34 -72 -28 -82 3 -4 -2 -14 -11 -21 -12 -10 -20 -10 -35
-1 -10 7 -31 12 -45 12 -27 0 -28 -3 -13 -60 3 -9 -2 -14 -11 -11 -88 22 -104
23 -115 7 -7 -9 -17 -16 -24 -16 -6 0 -11 -9 -11 -20 0 -33 -27 -77 -52 -84
-35 -9 -39 -8 -37 12 4 47 0 52 -46 52 -25 0 -45 -4 -45 -10 0 -5 -7 -10 -15
-10 -8 0 -15 4 -15 8 0 4 -20 14 -45 21 -50 15 -89 5 -120 -29 -16 -17 -16
-21 0 -53 9 -20 15 -46 13 -58 -3 -21 -4 -22 -20 -6 -23 24 -29 22 -60 -22
-15 -21 -45 -48 -67 -58 -38 -19 -42 -19 -93 -3 -47 14 -56 15 -67 2 -10 -10
-25 -12 -55 -8 -112 18 -132 18 -145 2 -9 -10 -29 -16 -56 -16 -38 0 -45 3
-57 30 -11 26 -18 30 -54 30 -58 0 -94 -48 -94 -125 0 -42 -11 -58 -25 -35 -3
6 -14 10 -24 10 -14 0 -23 -15 -36 -62 -9 -34 -23 -68 -31 -75 -8 -8 -14 -24
-14 -35 0 -11 -13 -37 -29 -57 -34 -43 -37 -87 -13 -203 13 -62 19 -78 34 -78
14 0 17 -7 15 -36 -2 -41 13 -53 36 -29 23 23 29 18 22 -18 -5 -24 -2 -37 9
-46 9 -8 16 -22 16 -32 0 -11 7 -19 15 -19 25 0 27 -25 7 -71 -11 -24 -25 -64
-32 -89 -18 -69 -29 -222 -17 -247 7 -16 6 -27 -2 -37 -24 -28 -2 -84 52 -137
28 -27 55 -49 60 -49 6 0 18 -7 28 -16 9 -8 40 -21 68 -29 28 -7 68 -27 90
-44 30 -24 49 -31 83 -31 36 0 50 -6 73 -30 16 -16 37 -30 46 -30 10 0 24 -6
31 -13 20 -21 54 -37 76 -37 12 0 30 -16 46 -40 26 -39 27 -60 4 -60 -6 0 -26
-13 -45 -30 -25 -22 -44 -30 -73 -30 -52 0 -113 -56 -138 -127 -24 -67 -40
-87 -58 -72 -11 9 -14 6 -14 -15 0 -18 -5 -26 -18 -26 -11 0 -28 -16 -41 -40
-19 -34 -25 -39 -37 -29 -12 10 -13 9 -8 -5 5 -13 0 -16 -26 -16 -26 0 -34 -5
-43 -30 -7 -20 -18 -30 -32 -30 -60 -1 -164 -109 -181 -188 -3 -17 -19 -50
-35 -72 -16 -22 -29 -45 -29 -50 0 -6 -7 -13 -15 -16 -8 -4 -15 -17 -15 -29 0
-13 -16 -56 -35 -97 -33 -68 -35 -78 -30 -141 4 -37 2 -82 -4 -100 -6 -17 -13
-44 -16 -59 -3 -16 -11 -28 -18 -28 -6 0 -21 -19 -32 -43 -11 -23 -30 -50 -41
-59 -27 -22 -37 -75 -15 -81 28 -7 40 3 47 38 7 38 32 52 63 36 26 -15 31 -14
31 5 0 10 6 14 15 10 25 -9 45 5 45 33 1 44 23 64 62 56 18 -4 38 -11 43 -16
6 -4 31 5 59 22 41 26 57 30 102 27 60 -3 72 12 34 45 -23 20 -41 22 -57 6 -8
-8 -13 -7 -18 2 -9 14 20 39 46 39 9 0 32 6 50 13 20 8 45 11 59 7 17 -5 39 0
70 15 75 38 117 55 134 55 9 0 16 6 16 14 0 8 -16 16 -41 20 -38 6 -44 4 -68
-24 -23 -26 -35 -31 -93 -36 l-67 -7 -7 39 c-3 22 -10 44 -14 49 -8 10 -23
107 -22 151 0 26 -19 32 -37 10 -8 -9 -9 -26 -3 -53 8 -34 6 -42 -9 -51 -30
-19 -39 -14 -39 22 0 18 -7 39 -15 46 -19 16 -19 51 0 76 18 24 20 104 3 104
-7 0 -5 5 5 11 9 5 17 18 17 27 1 30 26 52 58 52 41 0 49 -16 20 -39 -29 -24
-21 -33 21 -25 23 5 33 13 37 33 16 72 40 129 66 152 19 17 26 32 22 43 -13
35 30 97 57 80 5 -3 9 3 9 13 0 24 19 43 42 43 10 0 18 4 18 9 0 5 10 11 22
13 14 2 24 12 28 28 4 17 16 27 38 34 18 5 32 13 32 19 0 5 11 6 26 3 20 -5
27 -3 31 14 3 11 13 20 23 20 9 0 29 10 44 21 19 15 43 22 79 23 35 1 63 9 82
22 32 22 116 64 129 64 5 0 22 11 38 25 33 28 98 33 98 8 0 -7 -6 -13 -14 -13
-8 0 -17 -4 -20 -9 -11 -17 6 -41 28 -41 26 0 52 66 34 88 -8 9 -3 20 22 42
36 32 55 36 109 20 41 -11 65 2 55 32 -3 10 0 25 6 33 7 8 10 24 7 35 -4 15 0
20 14 20 16 0 18 3 10 18 -8 15 -1 26 39 62 43 38 47 45 38 66 -8 18 -6 28 11
52 11 17 21 41 21 54 0 28 9 42 33 51 9 4 17 17 17 30 0 26 50 101 87 130 13
10 23 25 23 33 0 8 9 14 20 14 11 0 20 6 20 14 0 18 139 166 156 166 7 0 15
-6 17 -12 3 -7 6 -4 6 7 1 11 17 37 37 59 32 35 40 38 88 39 57 0 116 -25 116
-49 0 -8 -7 -17 -15 -20 -8 -4 -15 -12 -15 -19 0 -7 -18 -26 -39 -42 -29 -21
-37 -33 -31 -43 6 -9 5 -17 -2 -21 -18 -12 0 -42 22 -36 10 3 24 -1 31 -9 8
-10 6 -14 -14 -19 -24 -7 -77 11 -111 37 -16 13 -17 16 -3 29 8 8 18 34 22 57
4 23 12 42 18 42 7 0 20 14 29 30 23 41 1 40 -35 0 -15 -17 -36 -30 -47 -30
-11 0 -20 -4 -20 -9 0 -5 -10 -13 -22 -17 -48 -15 -92 -84 -72 -115 5 -9 10
-9 18 2 27 34 42 40 71 25 32 -17 58 -52 63 -83 2 -17 -1 -21 -13 -17 -11 5
-15 -1 -15 -25 0 -24 -4 -31 -20 -31 -11 0 -20 -6 -20 -14 0 -9 13 -14 41 -14
48 -1 54 -5 44 -29 -4 -10 -7 -41 -6 -69 3 -63 -15 -84 -68 -84 -21 0 -44 -6
-50 -14 -21 -25 -61 -28 -101 -8 -33 16 -37 16 -32 3 3 -9 9 -21 14 -27 5 -7
2 -17 -8 -25 -13 -11 -17 -10 -26 2 -7 10 -8 6 -3 -14 5 -24 0 -34 -34 -65
-54 -52 -94 -82 -107 -82 -6 0 -19 -9 -29 -20 -10 -11 -27 -20 -37 -20 -11 0
-31 -9 -45 -20 -21 -17 -23 -21 -9 -26 9 -3 16 -14 16 -24 0 -28 -43 -84 -70
-90 -16 -4 -24 -12 -22 -23 2 -11 -4 -17 -17 -17 -11 0 -25 -6 -30 -12 -6 -7
-22 -28 -37 -45 -14 -18 -34 -33 -45 -33 -18 0 -23 -16 -22 -83 0 -15 -6 -17
-31 -12 -20 4 -26 3 -18 -3 11 -7 10 -12 -3 -26 -17 -16 -13 -56 6 -56 5 0 14
-10 19 -22 7 -18 9 -19 9 -5 1 9 8 17 17 17 10 0 13 -6 9 -19 -3 -10 1 -24 10
-31 8 -7 15 -17 15 -22 0 -6 6 -24 14 -41 8 -18 22 -49 30 -70 8 -20 20 -37
25 -37 19 0 40 -54 29 -73 -7 -13 -6 -23 3 -33 9 -11 9 -20 1 -37 -18 -36 -26
-91 -12 -82 7 4 13 -1 17 -14 3 -12 13 -21 22 -21 9 0 26 -3 39 -6 18 -5 21
-3 16 10 -9 24 14 20 53 -10 27 -21 33 -31 29 -50 -5 -17 7 -43 44 -101 47
-71 50 -82 45 -121 -7 -48 12 -66 40 -38 9 9 22 16 29 16 7 0 23 11 36 25 13
14 29 25 35 25 7 0 20 9 29 19 10 11 31 23 48 26 30 7 88 -10 88 -26 0 -5 6
-9 14 -9 7 0 23 -13 36 -30 21 -28 28 -30 87 -30 75 0 116 -19 134 -62 6 -15
15 -28 20 -28 5 0 9 -8 9 -19 0 -10 7 -24 15 -31 19 -16 19 -49 1 -56 -20 -8
-86 -137 -86 -168 0 -14 10 -34 21 -45 l22 -20 -33 -40 c-17 -23 -36 -41 -41
-41 -7 0 -7 -6 0 -17 5 -9 7 -41 4 -69 -5 -46 -3 -54 16 -66 14 -9 21 -23 21
-44 0 -21 6 -34 17 -38 14 -6 14 -9 -6 -22 -12 -9 -20 -21 -18 -27 2 -7 0 -20
-5 -29 -7 -14 -3 -19 17 -24 32 -8 32 -32 1 -40 -28 -7 -49 2 -41 17 6 9 -6
12 -42 10 -11 -1 -24 3 -28 8 -3 6 -11 11 -16 11 -6 0 -7 -5 -4 -11 4 -6 -1
-16 -10 -23 -14 -10 -15 -16 -6 -34 9 -17 9 -22 0 -22 -7 0 -9 -10 -6 -29 5
-22 0 -34 -18 -51 -22 -21 -23 -25 -10 -43 13 -19 13 -23 -6 -43 -16 -17 -29
-21 -62 -18 -23 2 -36 1 -29 -2 34 -16 -14 -84 -60 -84 -11 0 -17 -4 -13 -10
9 -15 -18 -50 -41 -50 -11 0 -30 9 -41 19 -12 11 -42 30 -67 42 -31 14 -46 27
-46 40 0 10 -5 19 -11 19 -6 0 -9 7 -6 15 4 8 2 17 -3 20 -6 4 -10 -7 -10 -24
0 -17 5 -31 10 -31 8 0 8 -6 1 -17 -8 -15 -2 -27 32 -61 40 -41 41 -44 23 -57
-10 -8 -24 -16 -30 -19 -6 -2 -1 -11 12 -21 27 -20 29 -45 2 -45 -11 0 -20 -6
-20 -13 0 -17 -43 -43 -48 -28 -5 16 -22 14 -22 -4 0 -20 -13 -19 -26 3 -9 13
-22 16 -63 14 -47 -4 -51 -6 -51 -30 0 -17 -10 -34 -27 -48 -22 -18 -28 -30
-27 -62 1 -34 -1 -39 -17 -35 -31 9 -21 -14 26 -58 39 -37 45 -48 44 -78 -2
-20 5 -49 14 -66 12 -22 16 -25 17 -12 0 10 3 17 8 15 22 -10 111 -85 111 -94
1 -7 18 -20 39 -29 54 -26 132 -111 132 -145 0 -46 -119 -176 -170 -186 -53
-11 -145 59 -194 147 -10 19 -24 39 -31 44 -6 6 -15 26 -18 45 -4 19 -11 55
-16 80 -6 25 -10 77 -11 115 0 68 -1 70 -30 83 -34 15 -40 42 -10 42 11 0 20
7 20 15 0 8 -9 15 -20 15 -11 0 -37 -7 -57 -15 -39 -17 -104 -20 -118 -6 -28
25 -210 111 -236 111 -42 0 -80 30 -67 53 23 43 -2 38 -73 -14 -13 -10 -29 -3
-87 35 -40 26 -72 53 -72 61 0 9 -10 15 -25 15 -14 0 -25 4 -25 10 0 10 -98
60 -118 60 -7 0 -12 3 -12 8 0 4 -13 13 -29 20 -16 7 -31 20 -34 30 -2 9 -22
26 -43 37 -22 11 -43 25 -47 32 -4 7 -16 13 -25 13 -28 0 -152 63 -152 77 0 7
-5 13 -11 13 -6 0 -34 20 -61 45 -28 25 -55 45 -62 45 -21 0 -76 58 -70 73 3
10 -5 21 -23 32 -32 19 -61 75 -69 132 -3 21 -12 52 -20 70 -8 17 -14 37 -14
45 0 8 -7 23 -15 34 -8 10 -15 34 -15 52 0 42 -15 41 -66 -6 -47 -43 -74 -83
-74 -111 0 -32 -11 -51 -29 -51 -24 0 -41 -20 -41 -48 0 -17 -8 -27 -30 -35
-33 -13 -33 -13 -30 -155 1 -73 0 -81 -15 -76 -10 4 -21 1 -26 -7 -6 -11 -11
-11 -20 -2 -10 10 -8 17 8 35 20 21 20 26 8 63 -20 57 -51 64 -47 10 2 -16 -1
-51 -6 -78 -9 -45 -8 -47 13 -47 18 0 24 -7 28 -32 3 -20 -1 -39 -8 -48 -7 -8
-15 -26 -17 -40 -3 -22 -8 -25 -47 -25 -26 0 -46 -6 -49 -13 -4 -13 -42 -17
-42 -4 1 4 7 18 14 31 14 25 11 51 -5 51 -13 0 -49 -62 -43 -72 3 -5 0 -15 -6
-23 -15 -18 -6 -47 12 -40 20 7 39 -10 32 -28 -8 -23 -31 -21 -46 2 -6 10 -17
17 -23 15 -8 -4 -14 18 -19 68 -4 40 -11 75 -16 76 -6 2 -17 10 -24 18 -20 20
-23 18 -19 -13 5 -34 -13 -87 -27 -78 -6 4 -7 23 -4 46 6 33 4 38 -9 33 -8 -3
-18 -12 -21 -20 -3 -8 -14 -14 -25 -14 -12 0 -25 -11 -33 -27 -14 -31 -59 -43
-83 -23 -10 8 -19 8 -35 -2 -17 -11 -22 -11 -30 2 -7 11 -5 16 10 18 15 3 20
11 20 34 0 23 4 29 15 24 9 -3 15 0 15 9 0 20 -19 29 -34 16 -7 -6 -16 -8 -19
-4 -4 3 -7 -1 -7 -10 0 -24 -50 -25 -90 -1 -56 34 -79 38 -101 18 -16 -14 -23
-15 -42 -6 -12 6 -35 13 -52 14 -18 2 -34 11 -40 23 -15 31 -88 115 -95 110
-3 -2 -5 -54 -3 -115 2 -85 0 -111 -10 -108 -6 3 -13 20 -15 39 -2 19 -8 38
-13 43 -5 6 -9 19 -9 30 0 24 -19 81 -37 111 -11 19 -13 19 -41 3 -43 -26 -52
-23 -50 15 2 24 -1 31 -12 29 -8 -2 -36 -5 -62 -7 -25 -2 -56 -8 -67 -14 -11
-6 -54 -11 -95 -11 -61 0 -76 -3 -76 -15 0 -8 -4 -15 -10 -15 -5 0 -10 -8 -10
-17 1 -17 1 -17 14 0 8 10 26 17 45 17 31 0 32 -1 29 -38 -3 -33 -6 -37 -28
-35 -38 3 -82 13 -117 29 -17 8 -38 14 -47 14 -10 0 -16 8 -16 21 0 37 -115
129 -137 109 -4 -4 -20 -10 -34 -14 -24 -5 -27 -2 -33 28 -10 51 -39 71 -100
69 -47 -2 -53 0 -71 27 -11 17 -28 30 -38 30 -10 0 -31 7 -46 15 -16 8 -48 16
-72 19 -50 4 -117 22 -138 35 -20 13 -57 -6 -73 -38 -23 -43 -60 -102 -63 -99
-2 2 0 32 4 68 5 36 6 70 4 77 -3 8 -25 12 -59 12 -53 -1 -54 -1 -60 -35 -3
-19 -4 -38 0 -41 3 -3 -3 -12 -14 -20 -14 -10 -20 -26 -20 -51 0 -20 -4 -43
-9 -51 -14 -22 -28 17 -25 69 6 88 6 171 0 177 -3 4 -6 14 -6 24 0 21 -32 79
-43 79 -4 0 -17 9 -29 20 -12 11 -34 26 -50 32 -15 7 -28 16 -28 20 0 4 -20
10 -45 14 -41 6 -45 9 -43 33 3 52 -2 91 -13 91 -19 0 -79 32 -79 42 0 31 -80
62 -95 37 -4 -5 -18 -9 -32 -7 -18 2 -32 -6 -53 -32 -26 -32 -30 -34 -47 -19
-31 27 -53 31 -53 9 0 -11 7 -20 15 -20 8 0 19 -10 26 -21 11 -21 10 -22 -41
-15 -50 7 -52 6 -47 -13 3 -12 1 -21 -3 -21 -4 0 -6 -9 -3 -20 4 -14 0 -20
-11 -20 -9 0 -16 7 -16 15 0 18 -13 19 -59 2 -43 -14 -84 -57 -70 -72 12 -12
69 -16 69 -4 0 5 8 9 18 9 16 -1 16 -2 -1 -14 -15 -12 -16 -18 -8 -35 10 -18
8 -21 -14 -27 -25 -6 -37 -44 -14 -44 5 0 8 4 5 9 -3 5 1 12 10 15 13 5 15 2
11 -14 -4 -17 0 -22 22 -26 21 -5 27 -12 29 -35 2 -23 -2 -30 -23 -35 -14 -3
-29 -13 -34 -22 -14 -24 -31 -4 -31 38 0 46 -11 56 -42 38 -13 -6 -30 -11 -39
-10 -9 2 -29 -11 -45 -28 -45 -47 -66 -37 -79 36 -6 37 -4 42 17 48 22 6 23 7
4 21 -26 20 -36 19 -36 -3 0 -10 -5 -23 -11 -29 -12 -12 -1 -183 12 -183 5 0
9 -19 9 -42 0 -39 -1 -40 -15 -22 -8 10 -15 36 -15 57 0 22 -6 51 -14 65 -7
15 -18 41 -22 57 -8 25 -15 30 -47 33 -20 2 -37 7 -37 13 0 5 -7 9 -15 9 -20
0 -19 -6 5 -30 11 -11 31 -20 45 -20 28 0 32 -14 10 -36 -8 -9 -15 -28 -15
-44 0 -16 -5 -32 -11 -36 -7 -4 -9 -23 -5 -50 3 -24 1 -46 -4 -49 -6 -3 -10
-33 -10 -66 0 -58 4 -64 38 -60 20 3 42 -19 42 -40 0 -10 9 -23 20 -29 11 -6
20 -17 20 -25 0 -19 14 -19 30 1 11 13 10 16 -8 21 -12 3 -22 11 -22 17 0 13
29 56 30 43 0 -4 8 -3 18 2 31 16 49 -3 36 -38 -9 -22 -9 -32 0 -41 13 -13
-23 -46 -61 -56 -13 -3 -23 -10 -23 -15 0 -22 -27 -6 -37 21 -14 38 -28 38
-44 1 -12 -26 -17 -29 -44 -25 -34 6 -77 25 -86 38 -4 4 -16 3 -27 -3 -11 -6
-30 -11 -41 -11 -12 0 -21 -7 -21 -15 0 -12 -8 -14 -41 -9 -36 6 -41 5 -38
-11 4 -18 54 -36 149 -55 25 -5 88 -20 140 -34 52 -14 104 -26 115 -26 11 0
33 -7 50 -16 16 -8 47 -14 68 -12 31 2 42 -2 56 -21 16 -21 21 -22 59 -11 23
6 42 16 42 23 0 7 9 18 21 25 20 13 21 12 14 -18 -13 -61 60 -105 100 -60 16
18 20 19 27 5 5 -8 20 -15 34 -15 13 0 32 -4 42 -9 33 -19 117 -39 208 -51 99
-13 181 -3 205 26 6 8 18 14 25 14 9 0 14 11 14 29 0 16 6 31 15 35 15 5 20
-8 17 -46 -1 -10 14 -29 33 -44 29 -22 41 -25 82 -21 79 9 117 19 135 35 15
13 38 14 137 9 138 -8 151 -2 151 63 0 48 11 55 50 35 17 -9 56 -20 87 -26 32
-6 62 -17 68 -24 5 -7 28 -16 50 -20 22 -4 55 -16 74 -27 40 -25 59 -17 77 33
6 19 16 33 20 32 5 0 24 -4 42 -6 42 -7 48 -13 32 -32 -16 -20 -6 -45 20 -45
15 0 20 7 20 25 0 14 5 25 11 25 7 0 9 12 5 34 -9 47 7 52 43 17 27 -26 35
-29 57 -21 46 18 64 30 64 45 0 9 10 15 23 16 12 0 31 2 42 4 67 14 122 -33
76 -63 -11 -8 -21 -19 -21 -24 0 -16 54 -68 70 -68 10 0 7 -5 -8 -16 -28 -20
-28 -32 3 -56 14 -11 25 -26 25 -34 0 -8 5 -14 10 -14 6 0 10 -6 10 -14 0 -24
42 -46 88 -46 35 0 43 -3 39 -15 -4 -8 -2 -17 2 -20 11 -6 19 13 16 43 -2 30
9 28 31 -5 30 -47 49 -63 84 -69 35 -8 36 -1 2 38 -8 10 -12 26 -9 37 2 11 -2
29 -10 40 -12 18 -12 21 1 21 8 0 21 -8 28 -18 21 -30 38 -35 56 -18 10 8 40
17 67 19 36 3 51 9 53 21 2 9 8 16 14 16 6 0 8 9 5 20 -7 26 21 50 34 29 9
-13 7 -23 -8 -71 -4 -12 0 -18 11 -18 9 0 16 -7 16 -15 0 -12 4 -13 19 -6 10
6 21 8 23 5 3 -3 8 7 12 21 4 14 13 25 21 25 21 0 19 -6 -11 -46 -15 -19 -28
-46 -30 -61 -1 -15 -10 -30 -18 -35 -9 -5 -16 -17 -16 -26 0 -9 -4 -23 -9 -31
-11 -18 -51 -5 -51 17 0 10 -9 23 -20 29 -16 11 -18 17 -9 43 6 16 15 30 20
30 5 0 9 5 9 12 0 7 -15 -2 -32 -19 -18 -17 -44 -33 -58 -35 -15 -2 -26 -11
-28 -22 -3 -11 -11 -26 -19 -35 -14 -13 -13 -16 1 -27 14 -10 22 -7 46 17 15
16 33 29 39 29 19 0 12 -34 -14 -64 -19 -22 -22 -32 -14 -47 5 -11 14 -19 20
-19 6 0 23 -12 39 -27 35 -33 113 -63 163 -63 26 0 37 -4 37 -15 0 -16 84 -83
148 -115 23 -12 47 -31 52 -41 6 -10 30 -30 54 -44 25 -14 50 -32 56 -40 7 -9
30 -15 52 -15 39 0 88 -24 88 -42 0 -20 33 -78 44 -78 14 0 46 -61 46 -88 1
-30 33 -56 134 -107 60 -31 102 -59 109 -72 5 -13 26 -32 44 -43 31 -18 36
-19 56 -5 45 31 67 15 67 -50 0 -46 46 -80 94 -71 27 5 35 3 40 -11 12 -34 34
-65 66 -94 40 -37 53 -37 45 0 -7 33 5 45 36 36 15 -5 18 -10 10 -18 -18 -18
-13 -47 7 -47 15 0 18 6 14 30 -4 29 -3 30 32 30 33 0 36 -2 26 -19 -18 -35
-12 -41 40 -37 l51 5 -7 -35 c-7 -41 11 -47 28 -9 6 14 18 25 26 25 11 0 13
-9 8 -45 -8 -48 -5 -51 24 -35 13 7 21 5 31 -6 7 -8 25 -22 41 -30 28 -14 28
-14 28 14 0 33 29 65 48 53 7 -4 15 -18 17 -32 3 -13 9 -25 15 -27 24 -8 9
-32 -20 -32 -25 0 -30 -4 -30 -25 0 -13 6 -28 13 -32 7 -4 22 -20 34 -36 19
-24 23 -26 36 -12 24 23 43 18 57 -15 12 -29 40 -42 40 -19 0 6 7 9 15 5 10
-4 22 4 33 23 23 38 42 29 42 -21 0 -32 7 -47 34 -74 40 -40 62 -45 51 -12
-13 42 -17 98 -7 98 11 0 72 -106 72 -125 0 -6 10 -21 23 -32 17 -17 37 -22
92 -23 94 -3 95 -3 95 20 0 34 27 22 49 -23 29 -59 102 -132 157 -156 75 -34
202 -70 224 -64 11 3 20 0 20 -6 0 -16 19 -14 36 4 19 18 144 22 144 4 0 -8 5
-7 16 2 13 11 17 10 25 -4 8 -14 13 -15 29 -4 11 6 20 17 20 24 0 16 15 17 41
3 10 -6 19 -7 19 -2 0 11 168 34 182 26 6 -4 57 -6 113 -6 78 0 107 -3 116
-14 27 -32 179 -2 179 35 0 13 11 15 61 13 33 -2 74 2 90 9 23 9 33 9 42 0 14
-14 64 -15 72 -1 10 16 47 12 60 -7 11 -15 13 -15 24 5 13 24 47 30 53 10 5
-15 71 14 108 47 14 12 37 25 51 28 14 4 38 18 53 32 15 14 29 25 33 25 3 0
18 14 33 30 17 18 38 30 53 30 14 0 29 5 32 11 8 13 51 30 85 35 56 7 90 17
101 30 6 8 19 14 28 14 9 0 25 7 35 15 11 8 30 15 42 15 13 0 27 7 32 16 5 9
18 14 31 12 l23 -3 -21 -25 -22 -24 25 -13 c22 -11 31 -11 62 2 35 14 39 14
72 -5 33 -20 72 -19 72 1 0 5 7 9 15 9 8 0 15 5 15 10 0 6 7 10 15 10 19 0 19
-9 -2 -32 -15 -17 -15 -18 1 -18 26 0 54 22 49 39 -2 10 8 23 26 34 30 18 31
18 31 -1 0 -11 -7 -25 -15 -32 -19 -16 -20 -70 -1 -70 8 0 16 7 20 15 3 8 14
15 25 15 11 0 21 5 23 12 2 6 10 8 16 4 9 -5 9 -13 2 -27 -9 -15 -7 -21 5 -25
19 -8 30 1 30 24 0 9 9 18 20 21 11 2 24 10 30 18 6 8 18 11 28 7 19 -7 22
-20 7 -29 -5 -3 -10 -14 -10 -25 0 -13 5 -17 20 -13 14 4 20 14 20 34 0 19 5
29 15 29 16 0 60 25 84 48 8 8 24 11 38 7 13 -3 36 1 51 9 15 8 44 18 65 21
20 3 37 10 37 15 0 24 42 51 68 46 15 -4 38 0 52 9 14 8 36 19 50 25 14 6 34
14 45 19 11 5 34 14 50 20 17 7 65 35 107 63 57 38 86 67 114 109 22 35 46 60
60 63 15 4 24 14 24 26 0 10 6 23 14 27 8 4 42 50 76 101 36 54 68 92 78 92
23 1 56 27 87 70 14 19 40 42 57 50 33 16 38 23 59 80 7 19 29 50 48 68 34 32
34 32 28 101 -8 99 15 173 46 142 22 -22 36 -10 57 53 17 52 20 85 19 187 -1
75 3 142 11 169 7 25 15 73 17 106 4 53 7 61 23 57 23 -6 37 15 15 23 -12 5
-15 14 -10 31 4 16 1 25 -10 29 -24 10 -18 41 15 74 l30 31 -4 109 c-3 61 -8
115 -12 121 -7 12 -24 171 -24 226 1 26 -4 33 -19 33 -31 0 -31 25 1 46 27 17
29 23 23 59 -4 22 -6 85 -5 140 1 88 4 104 25 135 21 30 25 49 27 130 3 122
-11 276 -28 319 -8 18 -11 37 -8 43 13 21 -6 57 -32 60 l-26 3 25 28 c15 15
35 27 46 27 25 0 38 39 22 68 -11 20 -55 37 -70 27 -5 -2 -14 2 -21 10 -7 8
-9 16 -4 17 5 0 14 2 19 3 6 2 15 3 21 4 7 0 15 12 18 26 4 14 13 25 21 25 27
0 33 41 40 276 8 259 5 271 -52 255 -52 -15 -66 3 -58 74 3 33 8 104 10 158 5
100 -3 137 -30 137 -8 0 -17 12 -21 28 -3 15 -14 46 -23 70 -13 32 -16 55 -10
90 6 39 4 51 -12 68 -24 26 -24 40 1 71 15 20 17 29 9 45 -6 11 -9 34 -6 52 2
17 -1 74 -9 126 -8 63 -10 110 -4 142 7 35 6 56 -5 82 -8 20 -15 47 -15 61 0
26 -53 115 -68 115 -15 0 -102 89 -102 104 0 8 -13 17 -29 21 -34 7 -52 26
-77 80 -16 33 -25 41 -52 43 -21 2 -32 9 -32 19 0 12 8 14 38 11 21 -3 49 1
65 9 26 13 29 12 57 -19 17 -18 30 -36 30 -40 0 -16 40 -7 50 11 16 31 13 128
-5 135 -28 11 -17 45 23 65 20 11 45 29 54 40 10 12 26 21 37 21 30 0 51 11
51 26 0 8 7 14 15 14 8 0 15 -4 15 -10 0 -5 7 -10 15 -10 8 0 15 6 15 14 0 8
20 23 45 35 25 12 45 27 45 35 0 19 85 102 138 135 23 15 90 73 147 130 78 76
105 109 105 127 0 14 15 49 34 77 56 87 86 143 86 162 0 9 16 52 36 94 94 199
99 221 59 253 -21 16 -23 23 -14 34 7 8 10 16 8 17 -56 38 -79 61 -69 67 15 9
93 -13 98 -28 2 -7 10 -12 19 -12 10 0 14 10 13 33 -3 51 -1 57 20 57 11 0 27
12 37 28 27 41 37 49 58 46 26 -5 65 15 65 33 0 7 5 13 10 13 6 0 10 7 10 15
0 8 9 19 20 25 26 14 50 61 50 99 0 18 10 41 25 57 28 30 53 80 53 104 -1 8
19 50 43 93 24 43 50 89 57 102 7 13 33 39 57 56 51 37 62 59 43 88 -10 16
-10 25 -2 39 9 14 6 24 -16 50 -14 17 -34 32 -43 32 -21 0 -32 19 -18 33 6 6
11 30 11 54 0 48 -15 56 -45 23 -23 -26 -35 -25 -98 4 -29 14 -69 27 -89 31
-24 4 -48 18 -70 40 -34 37 -53 44 -61 23 -3 -10 -16 -7 -49 10 -25 12 -55 22
-67 22 -12 0 -31 5 -42 11 -18 9 -20 8 -17 -13 3 -20 -1 -23 -33 -23 -39 0
-105 -39 -115 -67 -3 -10 -9 -18 -14 -18 -12 0 -42 -57 -64 -120 -11 -30 -28
-66 -38 -79 -10 -13 -18 -32 -18 -42 0 -10 -4 -20 -8 -23 -12 -7 -13 -68 -1
-82 7 -8 6 -14 -1 -19 -5 -3 -10 -16 -10 -28 -1 -12 -11 -35 -24 -51 -20 -24
-26 -26 -44 -17 -18 9 -23 8 -33 -10 -8 -15 -8 -24 0 -32 6 -6 11 -21 11 -32
0 -21 16 -40 84 -100 43 -38 21 -48 -41 -20 -87 41 -99 41 -114 6 -12 -27 -19
-31 -51 -31 -28 0 -45 -8 -68 -30 -16 -16 -27 -35 -24 -43 6 -16 -22 -31 -38
-21 -6 4 -14 1 -18 -6 -11 -17 0 -50 16 -50 8 0 14 -4 14 -10 0 -14 -10 -12
-49 9 -27 14 -43 16 -79 10 -24 -5 -51 -17 -58 -26 -18 -25 -48 -106 -69 -183
-9 -36 -22 -76 -27 -90 -17 -40 -36 -160 -27 -166 14 -8 10 -133 -4 -167 -41
-94 -54 -176 -47 -280 1 -10 -10 -31 -24 -48 -38 -45 -33 -99 9 -99 26 0 65
42 65 71 0 22 12 30 28 20 24 -15 3 -87 -37 -127 -20 -21 -48 -58 -62 -83 -16
-29 -38 -52 -60 -62 -32 -16 -34 -16 -47 3 -14 19 -15 18 -48 -19 -19 -21 -37
-49 -40 -63 -3 -14 -10 -34 -16 -45 -18 -32 -31 -96 -31 -152 0 -37 -4 -53
-14 -53 -7 0 -13 -10 -13 -23 0 -30 -37 -65 -78 -73 -39 -8 -42 8 -12 66 24
47 25 56 4 64 -19 7 -54 -30 -88 -94 -28 -53 -50 -70 -68 -52 -9 9 -8 19 5 46
14 30 14 36 1 47 -19 15 -30 4 -41 -40 -13 -50 -33 -59 -79 -35 -20 10 -44 32
-53 47 -13 22 -21 26 -41 22 -36 -9 -70 -33 -70 -50 0 -10 -10 -15 -28 -15
-20 0 -32 -8 -45 -30 -24 -40 -37 -38 -30 5 3 19 0 49 -7 67 -14 35 -70 121
-82 126 -4 2 -5 9 -2 17 3 7 1 16 -5 20 -6 3 -11 -1 -11 -9 0 -9 -9 -16 -20
-16 -24 0 -24 5 -5 61 43 120 34 159 -20 96 -19 -21 -41 -37 -54 -37 -27 0
-27 3 10 56 41 61 37 88 -16 92 -22 2 -44 10 -48 18 -4 8 -21 14 -36 14 -24 0
-30 -5 -36 -32 l-7 -33 -10 31 c-21 66 -101 60 -126 -9 -7 -19 -12 -39 -11
-44 3 -19 -14 -53 -27 -53 -8 0 -14 3 -14 8 0 4 -16 16 -35 26 -19 11 -35 24
-35 29 0 6 -3 8 -6 4 -4 -3 -13 1 -22 9 -18 18 -68 12 -92 -11 -12 -13 -12
-19 -2 -35 15 -24 16 -66 2 -75 -5 -3 -10 -17 -10 -31 0 -13 -4 -24 -10 -24
-5 0 -10 -16 -10 -35 0 -43 -14 -45 -34 -3 -20 38 -20 35 4 41 11 3 20 10 20
15 0 5 -9 12 -20 15 -24 6 -26 47 -6 122 12 43 12 53 -1 73 -9 14 -13 40 -11
65 3 41 2 42 -29 45 -17 2 -44 -3 -60 -11 -27 -14 -29 -14 -39 8 -7 13 -8 29
-3 37 5 7 9 33 9 58 0 25 5 62 11 83 7 27 7 48 -1 73 -11 32 -9 39 14 74 32
49 33 65 3 85 -16 10 -27 32 -36 74 -12 55 -12 62 6 88 22 31 35 83 22 83 -16
0 -9 37 10 62 11 14 27 43 36 66 15 36 15 51 5 113 -12 73 -9 84 24 91 12 2
24 18 32 43 7 22 21 63 30 90 9 28 18 67 21 87 3 26 15 46 34 62 16 14 29 29
29 34 0 5 7 15 15 22 8 7 15 20 15 29 1 9 9 34 19 55 15 31 20 35 23 20 3 -17
6 -16 31 10 17 18 25 36 22 47 -3 10 1 35 10 56 9 21 27 85 40 143 12 58 32
139 43 180 15 52 22 104 22 171 0 88 -2 98 -25 125 -14 16 -25 38 -25 49 0 11
-6 32 -14 46 -9 18 -12 49 -8 99 5 79 -12 205 -34 260 -11 26 -15 88 -16 260
0 235 10 399 37 560 9 52 20 120 24 150 5 30 16 78 26 105 19 58 14 174 -11
209 -23 33 -17 71 15 104 46 46 58 111 60 324 1 103 5 200 9 215 9 36 6 356
-5 588 -8 165 -11 185 -36 238 -15 32 -27 64 -27 73 0 15 -55 86 -120 154 -19
20 -59 62 -88 94 -33 35 -62 56 -75 56 -13 0 -46 21 -75 46 -53 46 -102 65
-147 56z m-1951 -5949 c4 -9 4 -18 1 -21 -7 -8 -35 19 -35 34 0 17 27 7 34
-13z m2172 -350 c-11 -11 -17 4 -9 23 7 18 8 18 11 1 2 -10 1 -21 -2 -24z
m-3586 -473 c0 -13 -5 -18 -15 -14 -8 4 -15 12 -15 20 0 8 7 14 15 14 8 0 15
-9 15 -20z m217 -1615 c0 -8 -4 -15 -9 -15 -4 0 -8 7 -8 15 0 8 4 15 8 15 5 0
9 -7 9 -15z m-36 -68 c-1 -4 -1 -15 -1 -24 0 -16 -1 -16 -16 -1 -9 9 -13 21
-9 28 7 12 27 10 26 -3z m2496 -133 c3 -18 3 -18 -5 0 -8 19 -9 19 -15 -3 -4
-15 -10 -20 -18 -15 -10 6 -10 9 -1 12 7 2 12 10 12 19 0 21 25 10 27 -13z
m-2627 -39 c0 -8 -4 -15 -10 -15 -5 0 -10 7 -10 15 0 8 5 15 10 15 6 0 10 -7
10 -15z m3694 -24 c12 -12 32 -21 44 -21 15 0 22 -6 22 -20 0 -11 6 -20 13
-20 34 -1 40 -16 27 -68 -6 -28 -18 -56 -26 -63 -20 -17 -17 -39 6 -39 49 0
11 -45 -59 -68 -54 -19 -298 -35 -323 -21 -17 9 -28 7 -57 -9 -39 -21 -108
-39 -199 -53 -31 -4 -81 -13 -111 -19 -29 -6 -59 -9 -65 -7 -7 3 -18 23 -25
46 -19 65 -40 54 -34 -19 l6 -60 -36 0 c-30 0 -38 -4 -43 -24 -8 -32 -61 -54
-159 -66 -44 -5 -111 -15 -150 -24 -38 -8 -82 -12 -96 -9 -16 3 -37 -2 -53
-12 -20 -13 -38 -16 -70 -12 -29 4 -49 2 -63 -8 -19 -13 -24 -12 -47 6 -34 27
-33 52 3 66 25 9 30 16 29 44 -1 19 -5 37 -11 40 -6 4 -5 19 2 41 8 25 20 37
46 47 19 7 35 16 35 21 0 5 24 16 53 25 28 10 59 23 67 29 17 13 51 30 160 77
58 25 88 32 133 31 32 -1 57 3 57 8 0 6 13 10 29 10 52 0 328 65 371 87 14 7
47 13 74 13 29 0 53 6 60 14 19 23 94 46 154 47 31 1 68 5 82 10 42 14 130 3
154 -20z m-3613 -224 c-1 -12 -15 -9 -19 4 -3 6 1 10 8 8 6 -3 11 -8 11 -12z
m23 -52 c8 -22 -4 -45 -24 -45 -10 0 -27 -3 -37 -6 -15 -6 -14 -3 5 15 12 12
22 28 22 36 0 20 26 19 34 0z m-4247 -551 c-3 -3 -12 -4 -19 -1 -8 3 -5 6 6 6
11 1 17 -2 13 -5z m6842 -228 c47 -9 79 -20 87 -31 9 -12 20 -16 39 -11 18 5
27 2 32 -10 4 -11 14 -14 33 -11 15 3 32 1 38 -5 5 -5 25 -13 44 -17 29 -6 33
-11 30 -35 l-3 -28 22 21 c26 24 81 37 101 24 7 -4 72 -8 143 -8 141 0 195
-13 195 -46 0 -21 17 -21 39 0 10 9 28 11 60 6 25 -3 73 -10 106 -14 33 -5 76
-14 95 -21 93 -34 126 -50 131 -62 4 -7 18 -38 33 -69 14 -31 26 -59 26 -63 0
-4 11 -24 25 -44 30 -44 31 -67 5 -89 -13 -12 -18 -24 -14 -40 6 -20 2 -23
-27 -24 -74 -3 -133 4 -146 17 -13 13 -54 22 -103 22 -95 1 -195 33 -204 65
-4 15 -11 17 -38 12 -24 -5 -53 0 -94 15 -32 12 -81 29 -109 36 -27 8 -51 19
-53 24 -2 6 -23 10 -46 10 -34 0 -48 6 -71 30 -32 33 -50 38 -59 15 -6 -17
-72 -21 -78 -4 -2 7 -52 12 -133 14 -72 2 -152 9 -180 15 -27 5 -63 13 -80 16
-50 9 -165 48 -165 56 0 5 -20 8 -44 8 -39 0 -45 3 -56 29 -6 16 -20 37 -31
47 -24 21 -29 115 -5 95 8 -7 12 -21 9 -31 -4 -13 0 -20 10 -20 19 0 31 29 18
44 -6 7 -5 18 4 29 12 17 15 17 43 3 27 -14 32 -14 46 -1 8 8 17 15 21 15 4 0
13 7 21 15 20 19 177 20 283 1z m-502 -82 c-3 -3 -12 -4 -19 -1 -8 3 -5 6 6 6
11 1 17 -2 13 -5z m17 -99 c-22 -34 -44 -32 -44 4 0 32 16 43 42 29 17 -8 17
-10 2 -33z m-159 -35 c3 -5 -1 -10 -10 -10 -9 0 -13 5 -10 10 3 6 8 10 10 10
2 0 7 -4 10 -10z m-55 -43 c0 -2 -20 -26 -44 -53 -38 -42 -46 -46 -52 -31 -4
13 0 23 16 35 12 9 30 25 38 35 14 15 42 24 42 14z m-180 -197 c0 -5 -4 -10
-10 -10 -5 0 -10 5 -10 10 0 6 5 10 10 10 6 0 10 -4 10 -10z m385 -197 c22 -8
54 -18 70 -23 52 -14 85 -29 85 -40 0 -5 7 -10 15 -10 30 0 14 -15 -33 -31
-32 -10 -55 -13 -68 -7 -14 7 -36 3 -73 -11 -29 -11 -58 -18 -65 -15 -7 3 -17
-6 -23 -19 -8 -18 -21 -26 -47 -29 -43 -5 -71 19 -86 73 -14 49 -13 59 10 59
13 0 18 5 13 16 -7 19 29 47 72 55 36 7 76 1 130 -18z m225 -108 c0 -8 -9 -15
-20 -15 -13 0 -18 5 -14 15 4 8 12 15 20 15 8 0 14 -7 14 -15z m-2690 -1204
c0 -10 -7 -21 -15 -25 -16 -6 -19 3 -9 28 8 22 24 20 24 -3z m822 -433 c9 -23
-2 -40 -17 -28 -8 6 -11 18 -8 26 6 17 19 18 25 2z"/>
<path d="M7708 2193 c6 -2 18 -2 25 0 6 3 1 5 -13 5 -14 0 -19 -2 -12 -5z"/>
<path d="M5332 12483 c2 -10 10 -18 18 -18 22 0 18 29 -3 33 -14 3 -18 -1 -15
-15z"/>
<path d="M5407 12455 c-27 -12 -52 -27 -56 -33 -9 -14 -51 -4 -51 12 0 7 -7
13 -15 13 -8 0 -15 -4 -15 -8 0 -4 7 -9 15 -13 20 -7 19 -26 0 -26 -21 0 -105
-79 -105 -99 0 -9 -9 -24 -20 -34 -19 -16 -20 -16 -20 13 0 41 -36 43 -46 3
-4 -16 -14 -34 -23 -40 -14 -11 -14 -14 -2 -22 12 -8 12 -16 1 -54 -6 -25 -9
-50 -6 -55 13 -21 -6 -42 -39 -42 l-33 0 4 -60 c4 -62 -4 -74 -32 -45 -13 13
-17 12 -34 -5 -11 -11 -20 -27 -20 -35 0 -9 -11 -27 -25 -40 -19 -20 -21 -25
-8 -25 12 0 14 -3 6 -11 -10 -10 -10 -16 22 -154 9 -38 17 -77 19 -85 6 -32
29 -106 38 -127 6 -12 8 -29 4 -39 -6 -16 7 -69 25 -106 5 -10 9 -29 9 -42 0
-13 6 -26 14 -29 8 -3 17 -19 21 -36 3 -16 13 -35 21 -41 7 -7 11 -17 8 -22
-3 -5 2 -18 11 -28 9 -10 14 -23 11 -29 -4 -5 -2 -12 4 -16 5 -3 10 -17 10
-31 0 -13 5 -24 10 -24 6 0 10 -15 10 -34 0 -18 7 -39 15 -46 8 -7 15 -20 15
-30 0 -9 13 -30 30 -46 16 -16 30 -34 30 -41 0 -19 35 -33 84 -33 49 0 64 -11
40 -30 -8 -7 -13 -19 -10 -27 4 -9 -5 -16 -25 -20 -36 -7 -52 -38 -40 -80 4
-15 9 -50 10 -77 1 -51 16 -80 34 -69 7 4 8 -5 4 -25 -4 -18 -3 -32 2 -32 5 0
12 -15 15 -33 3 -19 17 -43 31 -55 14 -12 25 -29 25 -38 0 -9 23 -54 50 -101
28 -47 50 -87 50 -90 0 -4 14 -35 30 -70 17 -34 30 -67 30 -73 0 -5 14 -32 30
-58 17 -27 30 -57 30 -67 0 -27 33 -75 56 -81 15 -4 23 -18 31 -52 7 -26 19
-72 27 -102 9 -30 18 -81 20 -112 1 -33 9 -65 18 -75 8 -10 18 -25 21 -34 3
-11 23 -19 56 -23 55 -7 62 -17 31 -43 -11 -10 -20 -27 -20 -40 0 -12 -4 -25
-10 -28 -17 -10 -11 -31 15 -59 22 -24 31 -54 26 -92 -1 -6 6 -17 14 -24 23
-19 21 -132 -3 -153 -10 -10 -24 -17 -30 -17 -14 0 -15 -8 -12 -77 1 -29 10
-69 21 -90 10 -20 19 -48 19 -62 0 -13 15 -47 34 -75 18 -28 50 -85 69 -128
20 -42 40 -79 45 -82 15 -9 52 6 52 21 0 8 5 11 10 8 6 -4 7 -11 4 -17 -4 -6
-1 -14 6 -18 9 -6 7 -11 -10 -20 l-22 -12 22 -11 c14 -7 29 -30 38 -57 35
-105 40 -115 62 -120 13 -3 26 -12 30 -20 50 -107 56 -116 144 -210 42 -45 77
-54 69 -17 -4 18 -1 16 18 -10 13 -18 31 -33 40 -33 9 0 22 -7 29 -15 10 -12
16 -13 26 -4 21 17 44 -7 44 -45 0 -17 9 -62 18 -101 l18 -70 65 -1 c80 -2
103 8 89 39 -11 21 -11 21 4 3 16 -19 17 -19 58 2 31 17 44 20 52 11 8 -8 8
-13 -1 -16 -18 -7 -16 -34 5 -60 26 -34 48 -16 28 22 -20 38 -4 59 36 51 19
-4 27 -2 23 5 -4 5 -1 16 5 24 6 8 9 23 5 34 -9 29 3 45 21 30 8 -6 18 -8 22
-4 4 4 1 10 -5 12 -7 3 -13 9 -13 14 0 17 44 54 65 54 24 0 30 22 14 61 -7 16
-13 43 -14 60 -1 18 -16 54 -34 80 -18 27 -29 55 -26 64 15 37 15 68 1 109 -9
24 -16 58 -16 75 -1 17 -9 49 -20 71 -11 22 -19 61 -20 86 0 29 -9 63 -25 92
-13 26 -34 84 -46 129 -40 158 -45 173 -61 203 -9 17 -21 56 -27 88 -11 60
-16 69 -67 121 -80 82 -184 221 -184 247 0 6 -11 32 -24 58 -32 64 -84 200
-92 241 -4 19 -12 46 -19 60 -7 14 -16 47 -19 73 -4 27 -18 77 -32 113 -13 35
-24 80 -24 100 0 36 -32 118 -50 129 -5 3 -10 46 -10 96 0 69 -3 89 -14 89 -8
0 -21 26 -32 65 -10 36 -22 65 -26 65 -4 0 -15 16 -24 35 -15 33 -15 37 0 54
17 18 14 62 -5 86 -4 6 -13 66 -19 135 -6 68 -15 131 -20 139 -4 9 -11 39 -15
66 -15 96 -47 164 -69 146 -13 -11 -66 30 -66 50 0 10 21 51 31 59 29 24 39
145 19 220 -14 52 -60 191 -75 225 -35 81 -45 107 -45 118 0 13 -63 116 -77
126 -16 12 -35 60 -30 75 3 8 2 18 -3 21 -6 4 -10 29 -10 57 0 49 -22 104 -47
121 -7 4 -13 19 -13 32 0 20 -5 25 -25 25 -21 0 -25 5 -25 30 0 19 -5 30 -14
30 -7 0 -19 14 -26 30 -7 17 -22 37 -34 45 -18 13 -21 13 -26 0 -4 -12 -15 -7
-48 24 -29 27 -48 38 -62 34 -14 -4 -22 1 -27 15 -8 19 -8 19 -56 -3z m803
-4240 c0 -8 -4 -15 -10 -15 -5 0 -10 7 -10 15 0 8 5 15 10 15 6 0 10 -7 10
-15z m640 -460 c0 -2 -9 -9 -20 -15 -22 -12 -44 -5 -35 11 6 9 55 13 55 4z"/>
<path d="M12248 10530 c-18 -11 -87 -22 -131 -20 -32 0 -55 -20 -82 -73 -11
-21 -30 -44 -42 -52 -51 -34 -93 -113 -93 -174 0 -11 -6 -24 -13 -28 -14 -9
-77 -135 -77 -155 0 -7 -7 -22 -15 -32 -8 -11 -15 -29 -15 -40 0 -12 -9 -34
-20 -51 -19 -29 -25 -56 -34 -162 -2 -28 -9 -60 -15 -71 -6 -11 -15 -68 -20
-126 -5 -57 -12 -110 -17 -117 -4 -6 -9 -74 -11 -150 -4 -121 -2 -139 11 -139
9 0 16 -6 16 -12 1 -14 34 -58 44 -58 14 0 46 -36 46 -52 0 -22 -7 -22 -66 -2
-25 8 -47 14 -49 12 -1 -2 -6 -17 -9 -33 -7 -31 -5 -35 50 -82 42 -37 84 -53
151 -58 64 -4 87 -11 188 -55 71 -31 145 -42 169 -27 13 9 29 11 41 6 33 -13
38 -11 94 41 30 28 62 50 70 50 15 0 62 65 87 121 7 15 21 33 32 40 10 8 28
30 38 49 11 19 30 48 44 63 25 28 61 133 59 172 0 11 -3 14 -6 8 -2 -7 -9 -13
-14 -13 -12 0 -12 57 0 65 18 10 38 109 34 160 -3 33 3 81 18 135 43 167 47
351 9 415 -27 46 -40 96 -42 158 -1 32 -5 57 -9 57 -5 0 -12 14 -17 32 -6 23
-16 34 -33 38 -18 4 -25 14 -27 35 -4 33 -28 65 -49 65 -7 0 -21 8 -31 18 -27
27 -99 35 -121 14 -9 -10 -31 -18 -48 -18 -27 -2 -33 3 -42 27 -10 30 -24 35
-53 19z"/>
<path d="M2180 10221 c0 -10 30 -24 37 -17 3 2 -5 9 -16 16 -12 6 -21 7 -21 1z"/>
<path d="M2431 10201 c-13 -8 -13 -14 1 -43 40 -83 40 -85 29 -107 -14 -25
-15 -25 -35 -6 -10 11 -21 13 -38 6 -13 -5 -62 -9 -109 -9 -68 0 -94 -5 -128
-23 -32 -16 -51 -20 -81 -15 -31 5 -40 3 -40 -8 0 -8 6 -19 14 -23 8 -4 18
-21 22 -36 6 -27 5 -28 -13 -16 -11 6 -27 24 -36 38 l-16 26 -1 -27 c0 -14 -3
-33 -6 -41 -3 -8 2 -21 10 -30 36 -35 44 -114 9 -85 -11 9 -16 9 -24 -3 -5 -8
-9 -20 -9 -26 0 -7 -7 -13 -16 -13 -14 0 -14 -2 0 -22 9 -12 16 -33 16 -45 0
-13 4 -23 9 -23 16 0 24 -42 11 -50 -9 -6 -9 -13 -1 -28 6 -11 11 -32 11 -46
0 -29 3 -31 -74 39 -49 44 -75 46 -35 3 17 -18 44 -57 61 -85 16 -29 34 -56
39 -59 5 -3 9 -16 9 -29 0 -22 25 -74 69 -145 9 -14 34 -48 56 -74 38 -46 104
-127 125 -153 6 -7 10 -15 10 -18 0 -10 66 -110 92 -139 59 -68 150 -154 175
-166 16 -8 40 -28 55 -44 26 -28 28 -29 46 -13 22 20 58 22 68 5 5 -7 7 -25 6
-40 -1 -17 6 -36 18 -48 11 -11 20 -32 20 -47 0 -29 71 -123 93 -123 7 0 29
-15 49 -34 21 -19 48 -38 60 -42 31 -9 86 -58 128 -113 19 -25 50 -59 69 -76
65 -55 261 -273 261 -290 0 -15 77 -104 110 -126 62 -43 130 -121 130 -151 0
-32 14 -43 55 -43 25 0 30 -4 33 -27 2 -20 9 -28 23 -28 26 0 51 -58 43 -98
-6 -30 -6 -31 111 -125 22 -17 63 -56 92 -84 28 -29 57 -53 63 -53 15 0 120
-73 120 -83 0 -12 18 -28 70 -61 25 -16 51 -38 58 -48 8 -11 26 -18 48 -18 32
0 34 -2 34 -32 0 -24 3 -29 12 -20 8 8 18 6 41 -10 19 -14 43 -21 68 -20 22 1
39 -2 39 -7 0 -5 -9 -7 -20 -4 -16 4 -19 2 -14 -11 3 -9 17 -19 30 -22 13 -3
24 -10 24 -15 0 -5 7 -9 16 -9 9 0 34 -20 55 -44 21 -24 66 -61 99 -82 33 -22
62 -46 65 -56 3 -9 12 -19 20 -22 25 -9 18 32 -10 62 -57 63 -75 86 -75 99 0
7 -14 27 -30 43 -17 17 -28 35 -25 41 8 12 84 -67 131 -137 76 -114 144 -170
189 -154 6 1 23 4 40 6 16 1 31 7 33 13 2 6 16 11 32 11 36 0 52 21 54 70 1
43 10 48 43 25 20 -14 24 -13 52 10 21 19 31 36 33 63 l3 37 65 -67 c77 -80
111 -93 146 -55 13 15 24 37 24 50 0 14 7 30 15 37 10 8 15 30 15 62 0 39 -5
54 -24 73 -20 20 -30 23 -49 16 -20 -8 -29 -5 -51 18 -21 22 -26 37 -26 79 0
38 -4 54 -15 58 -8 4 -15 11 -15 18 0 6 -8 19 -17 28 -10 9 -33 32 -52 52 -19
20 -38 36 -43 36 -5 0 -32 22 -59 49 -39 38 -49 55 -44 70 8 25 -15 61 -73
120 -24 24 -46 57 -49 73 -3 15 -10 28 -15 28 -20 0 -80 56 -96 89 -9 20 -29
42 -45 49 -22 10 -107 120 -107 138 0 8 -40 44 -50 44 -5 0 -10 5 -10 11 0 6
-6 16 -12 23 -7 8 -33 37 -58 67 -25 29 -52 61 -62 70 -9 9 -19 26 -22 37 -7
22 -105 92 -129 92 -8 0 -20 7 -27 15 -15 18 -54 20 -72 2 -19 -18 -115 -20
-122 -2 -2 7 2 19 10 25 20 18 17 46 -8 80 -22 30 -61 40 -73 20 -4 -6 -15 -8
-25 -5 -13 4 -22 -1 -30 -14 -5 -11 -26 -28 -46 -37 -20 -9 -40 -28 -45 -41
-4 -12 -13 -23 -18 -23 -16 0 -32 27 -25 44 3 9 1 16 -5 16 -13 0 -15 -42 -2
-56 5 -5 12 -19 16 -31 5 -19 2 -23 -15 -23 -12 0 -36 11 -54 25 -18 14 -38
25 -44 25 -21 0 -13 39 11 51 12 6 36 26 54 45 18 19 37 34 42 34 6 0 11 7 11
15 0 8 6 15 13 15 18 0 37 43 37 83 -1 39 -20 67 -48 67 -14 0 -27 13 -42 45
-12 25 -28 45 -36 45 -8 0 -14 9 -14 19 0 10 -16 32 -35 48 -59 47 -108 96
-150 151 -21 29 -43 52 -47 52 -4 0 -8 7 -8 15 0 8 -4 15 -8 15 -5 0 -23 19
-40 43 -71 100 -222 257 -246 257 -8 0 -27 18 -43 40 -31 43 -40 48 -57 25
-15 -20 -50 -9 -66 20 -10 19 -10 30 0 55 7 16 13 42 13 56 0 27 -33 104 -45
104 -3 0 -16 20 -28 45 -12 25 -26 45 -31 45 -5 0 -18 19 -30 41 -11 23 -33
54 -48 68 -30 28 -74 93 -105 153 -10 20 -24 39 -31 42 -12 4 -105 119 -105
130 0 14 -158 164 -180 171 -14 4 -48 25 -76 46 -52 40 -69 45 -93 30z"/>
<path d="M12676 9355 c4 -8 8 -15 10 -15 2 0 4 7 4 15 0 8 -4 15 -10 15 -5 0
-7 -7 -4 -15z"/>
<path d="M8410 9228 c0 -22 17 -41 29 -34 16 10 13 33 -5 40 -22 8 -24 8 -24
-6z"/>
<path d="M7141 7850 c-19 -11 -6 -40 18 -40 14 0 18 5 14 20 -7 26 -15 31 -32
20z"/>
<path d="M7065 7841 c-9 -15 8 -35 24 -30 8 3 7 10 -2 23 -10 14 -16 16 -22 7z"/>
<path d="M7163 7703 c-23 -3 -33 -10 -35 -26 -4 -30 -38 -35 -45 -7 -5 18 -11
20 -37 15 -17 -4 -36 -13 -43 -22 -6 -8 -19 -13 -29 -11 -11 2 -20 -4 -22 -14
-2 -13 3 -18 18 -18 15 0 25 -11 36 -35 15 -37 34 -43 124 -36 38 3 79 20 49
21 -25 0 -30 26 -9 45 22 19 50 14 50 -10 0 -14 10 -19 27 -12 20 6 -20 119
-42 115 -5 0 -24 -3 -42 -5z"/>
<path d="M7420 7369 c0 -14 -5 -30 -10 -35 -14 -14 29 -64 53 -64 14 0 17 5
12 23 -4 12 -9 31 -12 41 -3 11 -14 29 -24 40 -19 20 -19 20 -19 -5z"/>
<path d="M7121 7314 c0 -11 3 -14 6 -6 3 7 2 16 -1 19 -3 4 -6 -2 -5 -13z"/>
<path d="M7182 7316 c1 -10 8 -17 13 -17 15 1 12 24 -3 29 -9 3 -13 -2 -10
-12z"/>
<path d="M8333 7298 c-18 -11 -33 -25 -33 -32 0 -6 -9 -19 -20 -29 -19 -16
-20 -16 -20 18 0 18 -3 36 -8 39 -20 12 -93 -80 -87 -109 2 -11 7 -41 10 -67
9 -68 30 -69 50 -3 l15 55 43 -3 42 -3 5 -79 c5 -78 6 -80 33 -83 28 -3 34
-20 18 -50 -11 -20 -3 -72 10 -72 5 0 15 12 22 28 6 15 18 32 26 38 9 7 14 29
13 60 0 27 5 58 11 69 12 22 27 153 20 172 -3 7 -25 22 -49 32 -24 11 -44 25
-44 30 0 16 -21 12 -57 -11z"/>
<path d="M7602 7287 c-13 -15 -6 -27 15 -27 8 0 21 -7 29 -15 9 -8 26 -15 39
-15 13 0 30 -7 39 -15 8 -8 38 -20 66 -25 28 -5 67 -21 86 -34 31 -21 40 -23
61 -13 28 13 28 44 -2 61 -10 6 -25 17 -33 24 -15 13 -21 14 -109 12 -52 -1
-63 2 -72 19 -14 25 -45 35 -68 23 -12 -7 -20 -6 -28 5 -10 13 -13 13 -23 0z"/>
<path d="M8026 7225 c-21 -19 -35 -38 -33 -43 3 -4 25 -6 49 -4 39 3 46 8 56
34 22 59 -16 66 -72 13z"/>
<path d="M7130 7212 c0 -17 6 -32 15 -36 11 -4 15 1 15 18 0 13 -7 29 -15 36
-13 11 -15 8 -15 -18z"/>
<path d="M7198 7213 c7 -3 16 -2 19 1 4 3 -2 6 -13 5 -11 0 -14 -3 -6 -6z"/>
<path d="M7667 7193 c-4 -3 -7 -19 -7 -34 0 -15 -4 -31 -10 -34 -17 -11 -11
-35 10 -35 14 0 22 11 30 41 15 53 2 87 -23 62z"/>
<path d="M8073 7113 c-7 -3 -13 -21 -13 -41 0 -33 1 -35 16 -20 18 18 15 67
-3 61z"/>
<path d="M7462 7088 c2 -15 11 -24 26 -26 25 -4 29 12 8 34 -22 21 -38 17 -34
-8z"/>
<path d="M9062 6770 c-22 -36 -14 -76 24 -116 34 -37 36 -38 62 -23 57 32 68
110 18 129 -13 5 -27 14 -31 19 -11 19 -59 12 -73 -9z"/>
<path d="M6470 6746 c0 -14 29 -31 38 -22 2 3 2 12 -1 21 -8 19 -37 20 -37 1z"/>
<path d="M10392 6720 c15 -23 31 -26 47 -7 14 18 4 27 -31 27 -26 0 -27 -2
-16 -20z"/>
<path d="M10257 6643 c-4 -3 -7 -12 -7 -20 0 -17 26 -17 33 1 8 21 -11 35 -26
19z"/>
<path d="M10331 6622 c-6 -11 -6 -24 -1 -33 8 -12 11 -12 25 2 9 9 13 23 9 32
-8 22 -21 22 -33 -1z"/>
<path d="M5873 4766 c-25 -22 -26 -25 -10 -32 19 -7 45 4 87 36 l25 20 -37 0
c-25 0 -46 -8 -65 -24z"/>
<path d="M5678 4539 c-10 -5 -18 -14 -18 -19 0 -15 42 -11 63 4 16 12 16 14 1
20 -21 8 -26 7 -46 -5z"/>
<path d="M5445 4070 c-3 -5 3 -10 14 -10 12 0 21 5 21 10 0 6 -6 10 -14 10 -8
0 -18 -4 -21 -10z"/>
<path d="M6651 3924 c0 -11 3 -14 6 -6 3 7 2 16 -1 19 -3 4 -6 -2 -5 -13z"/>
<path d="M6651 3884 c0 -11 3 -14 6 -6 3 7 2 16 -1 19 -3 4 -6 -2 -5 -13z"/>
<path d="M1355 3440 c-3 -5 3 -10 15 -10 12 0 18 5 15 10 -3 6 -10 10 -15 10
-5 0 -12 -4 -15 -10z"/>
<path d="M1294 3423 c-11 -11 -13 -18 -5 -21 6 -2 11 -10 11 -18 0 -8 4 -14 9
-14 8 0 11 70 4 70 -1 0 -9 -8 -19 -17z"/>
<path d="M725 3380 c-3 -5 -1 -10 4 -10 6 0 11 5 11 10 0 6 -2 10 -4 10 -3 0
-8 -4 -11 -10z"/>
<path d="M1190 3251 c0 -5 10 -11 23 -15 33 -9 37 -8 37 9 0 10 -10 15 -30 15
-16 0 -30 -4 -30 -9z"/>
<path d="M665 3240 c3 -5 8 -10 11 -10 2 0 4 5 4 10 0 6 -5 10 -11 10 -5 0 -7
-4 -4 -10z"/>
<path d="M4992 3225 c0 -16 2 -22 5 -12 2 9 2 23 0 30 -3 6 -5 -1 -5 -18z"/>
<path d="M702 3192 c-8 -24 -7 -30 9 -40 11 -7 19 -21 19 -32 0 -11 7 -20 15
-20 17 0 39 -36 29 -51 -3 -6 1 -18 9 -27 8 -9 18 -28 22 -42 l7 -25 -25 28
c-25 28 -47 35 -47 16 0 -6 -7 -17 -15 -26 -14 -14 -14 -17 0 -32 8 -10 15
-24 15 -32 0 -9 8 -24 18 -35 20 -21 18 -44 -4 -44 -8 0 -14 -9 -14 -20 0 -22
3 -23 38 -14 12 4 22 14 22 24 0 10 7 20 15 24 11 4 15 -1 15 -19 0 -14 -4
-25 -10 -25 -15 0 -12 -27 3 -33 19 -7 43 8 28 17 -7 5 -4 14 9 28 25 27 25
30 -4 61 -20 22 -31 26 -55 21 -24 -5 -31 -3 -31 10 0 13 11 16 60 16 66 0 79
15 36 44 -17 11 -23 22 -19 36 3 11 0 20 -5 20 -6 0 -10 13 -9 30 1 16 6 30
10 30 5 0 16 7 25 16 15 15 13 16 -17 9 -33 -7 -34 -6 -27 20 7 29 -15 65 -40
65 -7 0 -14 4 -16 9 -1 5 -15 12 -29 16 -23 6 -28 2 -37 -23z"/>
<path d="M1176 3119 c-2 -8 -6 -19 -8 -26 -2 -9 -12 -8 -36 4 -24 12 -36 13
-44 5 -8 -8 -4 -14 15 -21 15 -6 27 -15 27 -21 0 -5 7 -10 15 -10 8 0 15 5 15
10 0 6 14 10 30 10 35 0 38 12 10 42 -15 16 -20 18 -24 7z"/>
<path d="M161 3041 c-23 -23 -26 -43 -11 -71 7 -13 7 -21 0 -25 -30 -18 26
-146 62 -141 7 0 14 -3 16 -9 3 -13 -47 -16 -70 -4 -13 7 -18 6 -18 -4 0 -21
34 -47 61 -47 17 0 30 -10 43 -32 18 -29 18 -32 2 -43 -20 -15 -21 -25 -1 -25
8 0 15 -6 15 -14 0 -16 55 -66 72 -66 6 0 16 -7 23 -16 9 -13 33 -18 96 -21
96 -5 110 -8 107 -24 -5 -21 23 -22 29 -1 7 30 58 39 84 16 17 -15 21 -16 34
-3 19 18 9 58 -13 55 -10 -2 -29 6 -43 16 -14 10 -36 20 -48 21 -13 1 -41 18
-62 39 -21 21 -43 38 -47 38 -4 0 -16 10 -26 22 -17 20 -20 20 -25 5 -6 -15
-9 -15 -40 4 -38 23 -43 21 -47 -23 -3 -40 37 -82 69 -72 16 5 18 3 12 -18
-12 -39 -18 -38 -66 7 -51 48 -64 78 -44 99 12 12 11 16 -4 30 -10 9 -25 16
-33 16 -24 0 -40 24 -26 38 7 7 18 12 26 12 9 0 13 7 9 20 -7 28 20 26 29 -2
4 -13 7 -29 6 -35 -2 -8 7 -13 20 -13 15 0 29 11 41 33 l19 32 21 -25 c40 -47
66 -63 79 -53 22 17 68 24 88 13 16 -9 20 -8 20 5 0 17 16 20 25 5 4 -6 21 1
41 16 33 26 34 29 28 73 -3 25 -12 53 -19 61 -11 12 -11 17 0 27 24 22 6 50
-40 66 -54 17 -68 1 -30 -35 28 -26 33 -63 10 -72 -9 -3 -24 3 -35 14 -11 11
-25 20 -32 20 -6 0 -31 9 -54 21 -24 11 -52 21 -64 22 -13 1 -19 6 -15 15 3 9
0 12 -9 9 -8 -3 -22 1 -33 8 -24 19 -79 19 -86 1 -4 -10 2 -16 16 -18 l22 -3
-22 -13 c-19 -11 -25 -10 -40 6 -10 10 -23 27 -29 38 -16 28 -68 30 -93 5z
m477 -195 c5 -6 12 -21 15 -34 5 -20 3 -22 -11 -10 -22 17 -51 51 -52 60 0 10
38 -3 48 -16z"/>
<path d="M568 3003 c7 -3 16 -2 19 1 4 3 -2 6 -13 5 -11 0 -14 -3 -6 -6z"/>
<path d="M542 2704 c-17 -18 -12 -48 8 -52 11 -2 15 7 16 33 1 38 -4 42 -24
19z"/>
<path d="M826 2695 c4 -8 12 -15 20 -15 8 0 14 7 14 15 0 8 -9 15 -20 15 -13
0 -18 -5 -14 -15z"/>
<path d="M906 2605 c4 -8 8 -15 10 -15 2 0 4 7 4 15 0 8 -4 15 -10 15 -5 0 -7
-7 -4 -15z"/>
<path d="M4400 2589 c0 -11 4 -18 10 -14 5 3 7 12 3 20 -7 21 -13 19 -13 -6z"/>
<path d="M4207 2594 c-8 -8 3 -34 14 -34 11 0 12 27 0 34 -4 3 -11 3 -14 0z"/>
<path d="M4340 2542 c0 -11 7 -22 15 -26 9 -3 15 0 15 8 0 7 -7 19 -15 26 -12
10 -15 9 -15 -8z"/>
<path d="M4040 2537 c0 -8 6 -20 14 -26 10 -9 15 -8 19 4 4 9 -2 19 -13 25
-16 8 -20 8 -20 -3z"/>
<path d="M4409 2528 c-1 -2 -3 -15 -5 -30 -4 -39 22 -37 28 2 3 20 0 30 -9 30
-7 0 -14 -1 -14 -2z"/>
<path d="M7055 2420 c-3 -5 3 -10 15 -10 12 0 18 5 15 10 -3 6 -10 10 -15 10
-5 0 -12 -4 -15 -10z"/>
<path d="M2695 2250 c3 -5 12 -10 20 -10 8 0 17 5 20 10 4 6 -5 10 -20 10 -15
0 -24 -4 -20 -10z"/>
<path d="M10924 1999 c-3 -6 -1 -16 5 -22 8 -8 11 -5 11 11 0 24 -5 28 -16 11z"/>
</g>
</svg>
